<svg width="42" height="43" viewBox="0 0 42 43" fill="none" xmlns="http://www.w3.org/2000/svg">
<path d="M22.9677 31.7957C28.6277 30.7111 32.3368 25.2434 31.2522 19.5834C30.1676 13.9234 24.7 10.2143 19.0399 11.299C13.3799 12.3836 9.67086 17.8512 10.7555 23.5112C11.8401 29.1712 17.3077 32.8803 22.9677 31.7957Z" fill="#FFBB17"/>
<path d="M19.8927 6.38588C19.8927 7.0044 20.3915 7.50321 21.01 7.50321C21.6285 7.50321 22.1273 7.0044 22.1273 6.38588V1.67709C22.1273 1.05856 21.6285 0.559753 21.01 0.559753C20.3915 0.559753 19.8927 1.05856 19.8927 1.67709V6.38588Z" fill="#FFBB17"/>
<path d="M19.8927 36.7136V41.4224C19.8927 42.0409 20.3915 42.5397 21.01 42.5397C21.6285 42.5397 22.1273 42.0409 22.1273 41.4224V36.7136C22.1273 36.0951 21.6285 35.5963 21.01 35.5963C20.3915 35.6162 19.8927 36.0951 19.8927 36.7136Z" fill="#FFBB17"/>
<path d="M13.428 9.5184C13.6076 9.5184 13.8071 9.4785 13.9867 9.37874C14.5254 9.07945 14.705 8.40106 14.3857 7.86234L12.0314 3.79205C11.7321 3.25333 11.0537 3.07376 10.515 3.393C9.97625 3.69229 9.79667 4.37066 10.1159 4.90938L12.4703 8.97969C12.6698 9.31888 13.029 9.5184 13.428 9.5184Z" fill="#FFBB17"/>
<path d="M28.0333 33.7208C27.4946 34.02 27.315 34.6984 27.6342 35.2371L29.9886 39.3075C30.1881 39.6666 30.5672 39.8661 30.9463 39.8661C31.1259 39.8661 31.3254 39.8262 31.505 39.7265C32.0437 39.4272 32.2233 38.7488 31.904 38.2101L29.5497 34.1398C29.2504 33.601 28.572 33.4215 28.0333 33.7208Z" fill="#FFBB17"/>
<path d="M2.83329 11.0547C2.534 11.5935 2.71357 12.2718 3.23234 12.5711L7.30265 14.9255C7.48222 15.0253 7.66179 15.0652 7.86131 15.0652C8.24041 15.0652 8.61951 14.8657 8.81903 14.5065C9.11832 13.9678 8.93875 13.2894 8.41998 12.9901L4.34968 10.6357C3.81097 10.3365 3.13258 10.516 2.83329 11.0547Z" fill="#FFBB17"/>
<path d="M38.7677 30.5284L34.6974 28.174C34.1586 27.8747 33.4803 28.0543 33.181 28.573C32.8817 29.1118 33.0613 29.7901 33.58 30.0894L37.6503 32.4438C37.8299 32.5436 38.0095 32.5835 38.209 32.5835C38.5881 32.5835 38.9672 32.384 39.1667 32.0248C39.486 31.5061 39.3064 30.8277 38.7677 30.5284Z" fill="#FFBB17"/>
<path d="M6.94346 21.5498C6.94346 20.9312 6.44464 20.4324 5.82611 20.4324H1.11733C0.498807 20.4324 0 20.9312 0 21.5498C0 22.1683 0.498807 22.6671 1.11733 22.6671H5.82611C6.44464 22.6671 6.94346 22.1683 6.94346 21.5498Z" fill="#FFBB17"/>
<path d="M40.8826 20.4324H36.1739C35.5553 20.4324 35.0565 20.9312 35.0565 21.5498C35.0565 22.1683 35.5553 22.6671 36.1739 22.6671H40.8826C41.5012 22.6671 42 22.1683 42 21.5498C42 20.9312 41.5012 20.4324 40.8826 20.4324Z" fill="#FFBB17"/>
<path d="M7.30262 28.174L3.23231 30.5284C2.69359 30.8276 2.51402 31.506 2.83326 32.0447C3.03278 32.4039 3.41189 32.6034 3.79099 32.6034C3.97056 32.6034 4.17008 32.5635 4.34965 32.4637L8.41995 30.1094C8.95867 29.8101 9.13824 29.1317 8.819 28.593C8.51971 28.0543 7.84133 27.8547 7.30262 28.174Z" fill="#FFBB17"/>
<path d="M37.6703 10.6557L33.6 13.0101C33.0613 13.3094 32.8817 13.9878 33.2009 14.5265C33.4005 14.8856 33.7796 15.0852 34.1587 15.0852C34.3382 15.0852 34.5378 15.0453 34.7173 14.9455L38.7876 12.5911C39.3263 12.2918 39.5059 11.6134 39.1867 11.0747C38.8674 10.516 38.1891 10.3365 37.6703 10.6557Z" fill="#FFBB17"/>
<path d="M12.4503 34.1398L10.096 38.2101C9.79667 38.7488 9.97624 39.4272 10.495 39.7265C10.6746 39.8262 10.8541 39.8661 11.0537 39.8661C11.4328 39.8661 11.8119 39.6666 12.0114 39.3075L14.3658 35.2371C14.6651 34.6984 14.4855 34.02 13.9667 33.7208C13.448 33.4215 12.7696 33.601 12.4503 34.1398Z" fill="#FFBB17"/>
<path d="M28.0333 9.37874C28.2128 9.4785 28.3924 9.5184 28.5919 9.5184C28.971 9.5184 29.3501 9.31888 29.5497 8.95973L31.904 4.88943C32.2033 4.35072 32.0238 3.67233 31.505 3.37304C30.9663 3.07375 30.2879 3.25332 29.9886 3.77209L27.6342 7.8424C27.315 8.38111 27.4946 9.0595 28.0333 9.37874Z" fill="#FFBB17"/>
</svg>
