<svg width="50" height="45" viewBox="0 0 50 45" fill="none" xmlns="http://www.w3.org/2000/svg">
<path d="M9.3 31.3817H40.2127C45.3211 31.3817 49.4865 27.1402 49.4865 21.9323C49.4865 18.9525 48.1504 16.2143 45.8451 14.4157C45.5831 14.2278 45.4259 13.9593 45.3211 13.6372C43.9851 8.9125 39.6887 5.61058 34.8947 5.61058C34.004 5.61058 33.1394 5.71796 32.2749 5.93271C31.6724 6.09378 31.0699 5.85218 30.7293 5.34213C28.4763 2.01337 24.7825 0 20.853 0C17.8403 0 14.9848 1.15433 12.758 3.22139C10.5575 5.28844 9.19521 8.08031 8.90705 11.1138C8.85465 11.6238 8.54028 12.107 8.06874 12.3218C7.91155 12.4023 7.78057 12.456 7.64958 12.5366C7.51859 12.6171 7.38761 12.6439 7.25662 12.6976C5.23944 13.154 3.40563 14.3083 2.06958 15.9727C0.707324 17.6639 0 19.731 0 21.9323C0.0261972 27.1402 4.19155 31.3817 9.3 31.3817Z" fill="#9DC4FA"/>
<path d="M10.726 36.2735C9.93867 36.5036 9.47713 37.2961 9.72147 38.063L11.5405 43.6616C11.7305 44.2751 12.3278 44.6586 12.9794 44.6586C13.1151 44.6586 13.278 44.633 13.4138 44.6074C14.2011 44.3774 14.6627 43.5849 14.4183 42.818L12.5993 37.2194C12.3821 36.4525 11.5405 36.0434 10.726 36.2735Z" fill="#D3E2F7"/>
<path d="M22.7959 36.2735C22.0085 36.5036 21.547 37.2961 21.7913 38.063L23.6103 43.6616C23.8004 44.2751 24.3977 44.6586 25.0492 44.6586C25.185 44.6586 25.3479 44.633 25.4836 44.6074C26.271 44.3774 26.7325 43.5849 26.4882 42.818L24.6692 37.2194C24.4248 36.4525 23.5832 36.0434 22.7959 36.2735Z" fill="#D3E2F7"/>
<path d="M34.8657 36.2735C34.0784 36.5036 33.6169 37.2961 33.8612 38.063L35.6802 43.6616C35.8703 44.2751 36.4675 44.6586 37.1191 44.6586C37.2549 44.6586 37.4178 44.633 37.5535 44.6074C38.3408 44.3774 38.8024 43.5849 38.558 42.818L36.739 37.2194C36.5218 36.4525 35.6802 36.0434 34.8657 36.2735Z" fill="#D3E2F7"/>
</svg>
