<svg width="64" height="41" viewBox="0 0 64 41" fill="none" xmlns="http://www.w3.org/2000/svg">
<path d="M23.7051 25.5226C23.7051 19.2704 29.4501 14.1888 36.5297 14.1888C38.0675 14.1888 39.5472 14.4171 40.9399 14.8739C42.3907 13.4179 44.3057 12.3331 46.3947 11.7907C44.5378 8.07931 40.6208 5.62411 36.3266 5.62411C35.3981 5.62411 34.4987 5.73831 33.5992 5.93815C32.9319 6.10944 32.2645 5.8525 31.8873 5.31008C29.5661 1.99842 25.7362 0 21.6451 0C18.5405 0 15.552 1.14195 13.2598 3.19746C10.9676 5.25298 9.5749 8.02221 9.28475 11.0484C9.22672 11.5908 8.87854 12.1047 8.35627 12.3331C8.2112 12.3902 8.06613 12.4758 7.92105 12.5615C7.77598 12.6471 7.6309 12.6757 7.48583 12.7328C5.39676 13.1895 3.48177 14.36 2.14709 15.9873C0.754376 17.6717 0 19.7272 0 21.8969C0 27.0643 4.29419 31.2895 9.60391 31.2895H21.1228C21.442 29.3482 22.3414 27.5496 23.7341 26.008C23.7341 25.8367 23.7051 25.6654 23.7051 25.5226Z" fill="#D3E2F7"/>
<path d="M58.1413 26.3007C57.2993 26.0158 56.8638 25.1042 57.1832 24.2781C57.4445 23.5944 57.5606 22.8822 57.5606 22.1701C57.5606 19.1504 55.3251 16.5866 52.1895 15.5611C51.2604 15.2477 50.2733 15.1053 49.2281 15.1053C48.6765 15.1053 48.1248 15.1622 47.6022 15.2477C45.4537 15.618 43.5085 16.6721 42.2601 18.2673C41.7956 18.8371 41.0117 19.0365 40.3439 18.7516C39.0084 18.1819 37.5857 17.897 36.076 17.897C30.7919 17.897 26.495 21.5433 26.495 26.0443C26.495 26.3292 26.524 26.614 26.5531 26.9274C26.6111 27.4117 26.4369 27.9244 26.0595 28.2663C24.9853 29.2633 24.2594 30.4883 23.9401 31.7987C23.824 32.3115 23.7368 32.8242 23.7368 33.3655C23.7368 33.9067 23.7949 34.448 23.9401 34.9608C24.8111 38.4077 28.4402 41 32.7372 41H54.6573C59.622 41 63.6576 37.5816 63.6576 33.3655C63.6866 30.2604 61.5091 27.4971 58.1413 26.3007Z" fill="#9DC4FA"/>
</svg>
