<svg width="62" height="44" viewBox="0 0 62 44" fill="none" xmlns="http://www.w3.org/2000/svg">
<path d="M58.3352 26.4975C58.0678 26.3119 57.9073 26.0467 57.8004 25.7285C56.4367 21.0612 52.0514 17.7995 47.1581 17.7995C46.2489 17.7995 45.3665 17.9056 44.4841 18.1177C43.8691 18.2768 43.2541 18.0382 42.9065 17.5343C40.6069 14.246 36.8366 12.2571 32.8257 12.2571C29.7506 12.2571 26.836 13.3974 24.5632 15.4393C22.317 17.4813 20.9266 20.2392 20.6325 23.2358C20.579 23.7661 20.2581 24.2169 19.7768 24.4291C19.6164 24.5086 19.4827 24.5617 19.3222 24.6412C19.1885 24.7208 19.0548 24.7473 18.9211 24.8003C16.8622 25.2512 14.9904 26.418 13.6267 28.0356C12.2362 29.7062 11.5143 31.7482 11.5143 33.9227C11.5143 39.0672 15.7659 43.2571 20.9801 43.2571H52.5327C57.7469 43.2571 61.9985 39.0672 61.9985 33.9227C62.052 30.9791 60.6882 28.2743 58.3352 26.4975Z" fill="#D3E2F7"/>
<path d="M11.5143 19.1359C11.5143 20.8804 12.1676 22.5004 13.3234 23.7714C14.5044 22.8742 15.8863 22.2262 17.3185 21.8275C17.8211 18.6623 19.404 15.7464 21.7911 13.5782C21.9167 13.4785 22.0172 13.3788 22.1429 13.2791C21.0624 12.6062 19.8061 12.2573 18.4744 12.2573C14.63 12.2324 11.5143 15.3227 11.5143 19.1359Z" fill="#FFBB17"/>
<path d="M18.6 7.82857C19.5806 7.82857 20.3714 7.16759 20.3714 6.34798V2.22346C20.3714 1.40384 19.5806 0.742859 18.6 0.742859C17.6194 0.742859 16.8286 1.40384 16.8286 2.22346V6.37442C16.8602 7.16759 17.6194 7.82857 18.6 7.82857Z" fill="#FFBB17"/>
<path d="M10.8615 8.89697C11.0947 9.34892 11.5379 9.60001 11.9811 9.60001C12.1911 9.60001 12.4243 9.54979 12.6343 9.42425C13.2641 9.04762 13.474 8.19392 13.1008 7.51599L11.2813 4.1012C10.9314 3.42327 10.1383 3.19729 9.50854 3.59903C8.87872 3.97566 8.66879 4.82936 9.04201 5.50729L10.8615 8.89697Z" fill="#FFBB17"/>
<path d="M3.35762 12.0396L6.76879 13.8648C6.99453 13.9818 7.22028 14.0286 7.4711 14.0286C7.94766 14.0286 8.42422 13.7946 8.67504 13.3734C9.05128 12.7416 8.82554 11.946 8.1734 11.5951L4.76222 9.76991C4.085 9.41892 3.23221 9.62951 2.85598 10.2379C2.45466 10.8931 2.6804 11.6886 3.35762 12.0396Z" fill="#FFBB17"/>
<path d="M1.47509 21.1143H5.61062C6.42719 21.1143 7.08571 20.3235 7.08571 19.3429C7.08571 18.3622 6.42719 17.5714 5.61062 17.5714H1.47509C0.658525 17.5714 0 18.3622 0 19.3429C0 20.3235 0.658525 21.1143 1.47509 21.1143Z" fill="#FFBB17"/>
<path d="M8.65889 24.5528C8.28367 23.7973 7.43317 23.5455 6.75776 23.9932L3.35574 26.1757C2.68034 26.5954 2.4552 27.5468 2.85544 28.3022C3.10559 28.8059 3.58087 29.0857 4.05615 29.0857C4.28129 29.0857 4.53144 29.0297 4.75657 28.8898L8.15859 26.7073C8.83399 26.2597 9.05913 25.2803 8.65889 24.5528Z" fill="#FFBB17"/>
<path d="M23.9438 9.42449C24.2387 9.54986 24.5336 9.60001 24.8614 9.60001C25.484 9.60001 26.1067 9.34926 26.4344 8.89792L28.9906 5.48775C29.4822 4.81074 29.1872 3.9582 28.3352 3.58208C27.4503 3.20596 26.3361 3.43163 25.8445 4.08357L23.2883 7.51881C22.764 8.19582 23.0589 9.04836 23.9438 9.42449Z" fill="#FFBB17"/>
</svg>
